<?xml version="1.0" encoding="UTF-8"?>
<svg id="Capa_2" data-name="Capa 2" xmlns="http://www.w3.org/2000/svg" viewBox="0 0 1000 177.55">
  <defs>
    <style>
      .cls-1 {
        fill: #f0ebd8;
      }
    </style>
  </defs>
  <g id="Capa_1-2" data-name="Capa 1">
    <g>
      <g>
        <path class="cls-1" d="M64.56,0c20.98,0,32.28,11.3,32.28,32.28V169.48c0,5.17-2.91,8.07-8.07,8.07h-16.14c-5.17,0-8.07-2.91-8.07-8.07v-48.42c0-5.17-2.91-8.07-8.07-8.07h-16.14c-5.17,0-8.07,2.91-8.07,8.07v48.42c0,5.17-2.91,8.07-8.07,8.07H8.07c-5.17,0-8.07-2.91-8.07-8.07V32.28C0,11.3,11.3,0,32.28,0h32.28Zm-24.21,32.28c-5.17,0-8.07,2.91-8.07,8.07v32.28c0,5.17,2.91,8.07,8.07,8.07h16.14c5.17,0,8.07-2.91,8.07-8.07V40.35c0-5.17-2.91-8.07-8.07-8.07h-16.14Z"/>
        <path class="cls-1" d="M112.98,16.14c0-8.72,7.1-16.14,16.14-16.14s16.14,7.42,16.14,16.14-7.1,16.14-16.14,16.14-16.14-7.1-16.14-16.14Zm32.28,161.41c-20.98,0-32.28-11.3-32.28-32.28V56.49c0-5.17,2.91-8.07,8.07-8.07h16.14c5.17,0,8.07,2.91,8.07,8.07v80.7c0,5.17,2.91,8.07,8.07,8.07s8.07-2.91,8.07-8.07V56.49c0-5.17,2.91-8.07,8.07-8.07h16.14c5.17,0,8.07,2.91,8.07,8.07v88.77c0,20.98-11.3,32.28-32.28,32.28h-16.14ZM161.4,16.14c0-8.72,7.1-16.14,16.14-16.14s16.14,7.42,16.14,16.14-7.1,16.14-16.14,16.14-16.14-7.1-16.14-16.14Z"/>
        <path class="cls-1" d="M209.82,80.38c0-20.98,11.3-32.28,32.28-32.28h8.07c5.17,0,8.07-2.91,8.07-8.07V8.07c0-5.17,2.91-8.07,8.07-8.07h16.14c5.17,0,8.07,2.91,8.07,8.07V169.48c0,5.17-2.91,8.07-8.07,8.07h-40.35c-20.98,0-32.28-11.3-32.28-32.28V80.38Zm48.42,8.39c0-5.17-2.91-8.07-8.07-8.07s-8.07,2.91-8.07,8.07v48.42c0,5.17,2.91,8.07,8.07,8.07s8.07-2.91,8.07-8.07v-48.42Z"/>
        <path class="cls-1" d="M306.66,80.38c0-20.98,11.3-32.28,32.28-32.28h16.14c20.98,0,32.28,11.3,32.28,32.28v64.89c0,20.98-11.3,32.28-32.28,32.28h-16.14c-20.98,0-32.28-11.3-32.28-32.28V80.38Zm32.28,8.39v48.42c0,5.17,2.91,8.07,8.07,8.07s8.07-2.91,8.07-8.07v-48.42c0-5.17-2.91-8.07-8.07-8.07s-8.07,2.91-8.07,8.07Z"/>
      </g>
      <g>
        <path class="cls-1" d="M540.01,59.08c-5.17,0-8.07-2.91-8.07-8.07v-2.26c0-10.33-5.49-16.14-16.14-16.14s-15.82,5.81-16.14,16.14c-.65,19.37,8.39,22.6,24.21,22.6,26.15,0,40.35,14.2,40.35,40.35v17.11c0,31.31-16.79,48.42-48.42,48.42s-48.42-17.11-48.42-48.42v-2.26c0-5.17,2.91-8.07,8.07-8.07h16.14c5.17,0,8.07,2.91,8.07,8.07v2.26c0,10.33,5.49,16.14,16.14,16.14s15.82-7.42,16.14-17.75c.65-20.98-8.39-23.57-24.21-23.57-26.15,0-40.35-14.2-40.35-40.35v-14.53c0-31.31,16.79-48.42,48.42-48.42s48.42,17.11,48.42,48.42v2.26c0,5.17-2.91,8.07-8.07,8.07h-16.14Z"/>
        <path class="cls-1" d="M661.06,72.63c0,5.17-2.91,8.07-8.07,8.07h-14.53c-.97,0-1.61,.65-1.61,1.61v87.16c0,5.17-2.91,8.07-8.07,8.07h-16.14c-5.17,0-8.07-2.91-8.07-8.07V82.32c0-.97-.65-1.61-1.61-1.61h-14.53c-5.17,0-8.07-2.91-8.07-8.07v-16.14c0-5.17,2.91-8.07,8.07-8.07h14.53c.97,0,1.61-.65,1.61-1.61V8.07c0-5.17,2.91-8.07,8.07-8.07h16.14c5.17,0,8.07,2.91,8.07,8.07V46.81c0,.97,.65,1.61,1.61,1.61h14.53c5.17,0,8.07,2.91,8.07,8.07v16.14Z"/>
        <path class="cls-1" d="M709.48,177.55c-20.98,0-32.28-11.3-32.28-32.28V56.49c0-5.17,2.91-8.07,8.07-8.07h16.14c5.17,0,8.07,2.91,8.07,8.07v80.7c0,5.17,2.91,8.07,8.07,8.07s8.07-2.91,8.07-8.07V56.49c0-5.17,2.91-8.07,8.07-8.07h16.14c5.17,0,8.07,2.91,8.07,8.07v88.77c0,20.98-11.3,32.28-32.28,32.28h-16.14Z"/>
        <path class="cls-1" d="M774.03,80.38c0-20.98,11.3-32.28,32.28-32.28h8.07c5.17,0,8.07-2.91,8.07-8.07V8.07c0-5.17,2.91-8.07,8.07-8.07h16.14c5.17,0,8.07,2.91,8.07,8.07V169.48c0,5.17-2.91,8.07-8.07,8.07h-40.35c-20.98,0-32.28-11.3-32.28-32.28V80.38Zm48.42,8.39c0-5.17-2.91-8.07-8.07-8.07s-8.07,2.91-8.07,8.07v48.42c0,5.17,2.91,8.07,8.07,8.07s8.07-2.91,8.07-8.07v-48.42Z"/>
        <path class="cls-1" d="M870.88,8.07c0-5.17,2.91-8.07,8.07-8.07h16.14c5.17,0,8.07,2.91,8.07,8.07V24.21c0,5.17-2.91,8.07-8.07,8.07h-16.14c-5.17,0-8.07-2.91-8.07-8.07V8.07Zm0,48.42c0-5.17,2.91-8.07,8.07-8.07h16.14c5.17,0,8.07,2.91,8.07,8.07v112.99c0,5.17-2.91,8.07-8.07,8.07h-16.14c-5.17,0-8.07-2.91-8.07-8.07V56.49Z"/>
        <path class="cls-1" d="M919.3,80.38c0-20.98,11.3-32.28,32.28-32.28h16.14c20.98,0,32.28,11.3,32.28,32.28v64.89c0,20.98-11.3,32.28-32.28,32.28h-16.14c-20.98,0-32.28-11.3-32.28-32.28V80.38Zm32.28,8.39v48.42c0,5.17,2.91,8.07,8.07,8.07s8.07-2.91,8.07-8.07v-48.42c0-5.17-2.91-8.07-8.07-8.07s-8.07,2.91-8.07,8.07Z"/>
      </g>
    </g>
  </g>
</svg>